<svg xmlns="http://www.w3.org/2000/svg" width="123.103" height="118.497" viewBox="0 0 123.103 118.497">
  <g id="logo" transform="translate(-1055.564 -748.5)">
    <path id="Линия_2" data-name="Линия 2" d="M0,0V89" transform="translate(1058.5 750.5)" fill="none" stroke="#000" stroke-width="4"/>
    <path id="Контур_2" data-name="Контур 2" d="M165.167,54.232,80,70.5l85.167-16.263s-10,6.988-23.667,16.263c-2.966,2.013-15.179,10.1-15.179,10.1L108.3,91.267,80,73.334" transform="translate(1013.5 761.333)" fill="rgba(0,0,0,0.4)"/>
    <path id="Линия_9" data-name="Линия 9" d="M0,106V5.833" transform="translate(1081.5 760.5)" fill="none" stroke="#000" stroke-width="5"/>
    <path id="Контур_3" data-name="Контур 3" d="M0,85V0" transform="translate(1124.5 767.5)" fill="none" stroke="#000" stroke-width="5"/>
    <path id="Линия_11" data-name="Линия 11" d="M0,0,23.7,26.379" transform="translate(1058.5 838) rotate(3)" fill="none" stroke="#000" stroke-width="4"/>
    <path id="Контур_4" data-name="Контур 4" d="M-2.167,0H45.5" transform="translate(1081.5 768.5)" fill="none" stroke="#000" stroke-width="5"/>
    <line id="Линия_14" data-name="Линия 14" x2="38" transform="translate(1056.5 750.5)" fill="none" stroke="#000" stroke-width="4"/>
    <path id="Линия_16" data-name="Линия 16" d="M0,0V86" transform="translate(1094.5 748.5)" fill="none" stroke="#000" stroke-width="4"/>
  </g>
</svg>
